<svg xmlns="http://www.w3.org/2000/svg" xml:space="preserve" width="278.112" height="447.691" viewBox="0 0 73.584 118.452"><path d="M222.383 206.695c-4.118-1.192-7.48-3.932-9.17-7.471-.583-1.222-1.06-2.46-1.06-2.75 0-.323-.475-.617-1.225-.757-2.031-.381-2.303-1.143-2.303-6.457v-4.688l16.795.092 16.795.091-.056 4.925c-.032 2.834-.213 5.113-.426 5.37-.204.246-.89.544-1.523.663-.983.184-1.216.432-1.583 1.685-1.071 3.66-4.51 7.382-8.042 8.703-2.523.944-6.097 1.203-8.202.594zm-13.762-28.907a21.295 21.295 0 0 0-.222-2.822l-.22-1.323h34.748l-.213.794c-.117.436-.215 1.706-.217 2.822l-.005 2.028H208.625zm-2.133-11.818c-1.785-5.429-5.068-11.429-8.887-16.244-.97-1.221-1.694-2.288-1.61-2.372.083-.083 5.778-2.38 12.654-5.105 6.877-2.725 12.86-5.106 13.297-5.293l.794-.34v31.735h-15.465zm22.84 2.153c-.346-.347-.3-50.925.047-50.925.158 0 3.929 1.44 8.378 3.199 4.45 1.759 11.741 4.64 16.204 6.4 4.463 1.762 8.156 3.236 8.208 3.276.192.148-.975 5.111-1.712 7.283-1.201 3.536-3.08 6.882-6.112 10.887-5.102 6.739-7.168 10.36-9.356 16.404l-1.277 3.528-7.068.095c-3.888.053-7.178-.014-7.312-.147zm-38.124-28.964c-6.028-15.917-1.179-33.057 12.206-43.142 4.785-3.606 11.82-6.533 17.3-7.198l2.032-.247-.091 20.532-.091 20.531-14.993 5.951c-8.246 3.273-15.099 5.952-15.227 5.953-.129 0-.64-1.07-1.136-2.38zm54.815-22.51c-8.44-3.367-15.703-6.284-16.14-6.482l-.793-.362V99.191c0-9.94.04-10.604.618-10.445.34.094 1.41.28 2.38.411.97.132 3.035.638 4.587 1.125 9.716 3.044 18.255 10.61 22.607 20.028 2.048 4.433 3.729 12.583 2.577 12.496-.27-.02-7.395-2.792-15.836-6.158z" style="fill:#01a74f;fill-opacity:1" transform="translate(-188.647 -88.572)"/></svg>