<?xml version="1.0" encoding="UTF-8" standalone="no"?>
<!-- Created with Inkscape (http://www.inkscape.org/) -->

<svg
   width="73.583847mm"
   height="118.45161mm"
   viewBox="0 0 73.583848 118.45162"
   version="1.1"
   id="svg1"
   xml:space="preserve"
   inkscape:version="1.4 (86a8ad7, 2024-10-11)"
   sodipodi:docname="blled.svg"
   xmlns:inkscape="http://www.inkscape.org/namespaces/inkscape"
   xmlns:sodipodi="http://sodipodi.sourceforge.net/DTD/sodipodi-0.dtd"
   xmlns="http://www.w3.org/2000/svg"
   xmlns:svg="http://www.w3.org/2000/svg"><sodipodi:namedview
     id="namedview1"
     pagecolor="#505050"
     bordercolor="#eeeeee"
     borderopacity="1"
     inkscape:showpageshadow="0"
     inkscape:pageopacity="0"
     inkscape:pagecheckerboard="0"
     inkscape:deskcolor="#505050"
     inkscape:document-units="mm"
     inkscape:zoom="0.71891835"
     inkscape:cx="-316.44762"
     inkscape:cy="226.03401"
     inkscape:window-width="1920"
     inkscape:window-height="1009"
     inkscape:window-x="-8"
     inkscape:window-y="-8"
     inkscape:window-maximized="1"
     inkscape:current-layer="layer1" /><defs
     id="defs1" /><g
     inkscape:label="Ebene 1"
     inkscape:groupmode="layer"
     id="layer1"
     transform="translate(-188.64662,-88.572003)"><path
       style="fill:#01a74f;fill-opacity:1"
       d="m 222.38338,206.69457 c -4.11866,-1.19201 -7.48078,-3.93116 -9.17022,-7.47106 -0.58319,-1.22195 -1.06034,-2.45918 -1.06034,-2.74939 0,-0.32291 -0.47519,-0.61681 -1.22458,-0.7574 -2.03165,-0.38114 -2.30319,-1.14242 -2.30319,-6.45709 v -4.68743 l 16.79501,0.0916 16.795,0.0916 -0.0559,4.92418 c -0.0322,2.83424 -0.21307,5.11362 -0.42629,5.37053 -0.20374,0.24549 -0.88909,0.54364 -1.523,0.66257 -0.98315,0.18443 -1.21579,0.43213 -1.5826,1.68503 -1.07168,3.66048 -4.5108,7.38231 -8.04259,8.70372 -2.52231,0.94372 -6.09674,1.20221 -8.20135,0.59311 z m -13.76222,-28.9065 c -0.002,-0.82462 -0.10228,-2.09462 -0.22254,-2.82222 l -0.21867,-1.32292 h 17.37342 17.37341 l -0.21271,0.79375 c -0.117,0.43656 -0.21489,1.70656 -0.21754,2.82222 l -0.005,2.02848 h -16.93315 -16.93333 z m -2.13279,-11.81806 c -1.78532,-5.42889 -5.06817,-11.42884 -8.88763,-16.2436 -0.9689,-1.22138 -1.69343,-2.28889 -1.61008,-2.37224 0.0834,-0.0834 5.77801,-2.38071 12.65478,-5.10523 6.87677,-2.72452 12.86041,-5.10642 13.29697,-5.29311 l 0.79375,-0.33944 v 15.86744 15.86743 h -7.73235 -7.73235 z m 22.84007,2.15316 c -0.34688,-0.34688 -0.30088,-50.92468 0.0463,-50.92468 0.15873,0 3.92904,1.43918 8.37847,3.19819 4.44944,1.759 11.74114,4.63948 16.20377,6.40106 4.46264,1.76158 8.15638,3.23561 8.2083,3.27561 0.19211,0.14803 -0.97486,5.11105 -1.71233,7.28233 -1.201,3.53608 -3.07947,6.88219 -6.11197,10.88725 -5.10237,6.73876 -7.16818,10.36097 -9.35558,16.40417 l -1.27692,3.52778 -7.06888,0.0953 c -3.88789,0.0524 -7.17792,-0.0137 -7.31117,-0.14699 z m -38.1241,-28.96427 c -6.0281,-15.91687 -1.17887,-33.0566 12.20599,-43.142399 4.78443,-3.605177 11.81964,-6.532197 17.30021,-7.197798 l 2.03133,-0.2467 -0.091,20.531737 -0.0911,20.53174 -14.99306,5.95074 c -8.24618,3.27291 -15.09824,5.95146 -15.22679,5.95234 -0.12856,8.8e-4 -0.63957,-1.06997 -1.13558,-2.37966 z m 54.81515,-22.51075 c -8.4402,-3.36621 -15.70302,-6.28295 -16.13958,-6.48163 l -0.79375,-0.36124 V 99.190609 c 0,-9.938979 0.0393,-10.603815 0.61736,-10.444162 0.33955,0.09378 1.41111,0.27864 2.38125,0.410801 0.97014,0.132161 3.03389,0.638216 4.58611,1.124566 9.71617,3.044321 18.25534,10.609336 22.60704,20.028036 2.04822,4.43311 3.7291,12.58338 2.5771,12.49589 -0.26933,-0.0205 -7.39532,-2.79137 -15.83553,-6.15759 z"
       id="path1" /></g></svg>
